<svg id="svg" version="1.1" xmlns="http://www.w3.org/2000/svg" xmlns:xlink="http://www.w3.org/1999/xlink" width="175" height="175" viewBox="0, 0, 400,207"><g id="svgg"><path id="path0" d="M239.821 5.750 C 237.005 8.784,219.896 30.748,207.865 46.777 C 203.622 52.429,199.910 56.663,199.616 56.187 C 199.321 55.711,198.611 53.336,198.037 50.911 C 197.462 48.485,196.170 43.532,195.165 39.904 L 193.338 33.309 195.669 30.599 C 202.468 22.694,193.179 10.974,183.685 15.479 C 177.509 18.410,176.270 24.960,180.895 30.227 L 183.789 33.524 178.004 48.819 C 174.823 57.231,171.989 64.344,171.708 64.626 C 171.426 64.907,167.641 60.719,163.297 55.319 C 128.827 12.468,129.110 12.787,125.042 12.356 C 123.644 12.208,121.521 11.842,120.324 11.543 C 118.073 10.980,114.350 16.139,115.575 18.121 C 115.874 18.605,115.672 19.000,115.126 19.000 C 113.977 19.000,112.485 22.869,112.871 24.850 C 113.015 25.593,112.720 25.945,112.213 25.632 C 111.457 25.165,105.500 37.983,105.500 40.077 C 105.500 40.420,107.975 43.525,111.000 46.976 C 122.413 59.997,136.000 79.051,136.000 82.036 C 136.000 84.141,136.942 85.617,139.559 87.613 C 142.575 89.913,146.000 94.596,146.000 96.419 C 146.000 97.390,142.511 95.659,133.000 89.972 C 127.775 86.847,121.138 82.987,118.251 81.395 C 113.350 78.692,113.002 78.248,113.001 74.705 C 112.998 64.130,97.920 61.860,94.889 71.977 C 92.707 79.259,99.143 85.253,106.789 83.060 L 109.722 82.219 116.545 97.360 C 120.297 105.687,126.232 118.535,129.732 125.911 C 136.068 139.263,136.355 140.932,132.323 140.985 C 130.115 141.013,126.813 146.327,127.350 148.985 C 127.630 150.368,128.003 152.191,128.179 153.036 C 128.356 153.880,125.128 158.287,121.008 162.829 C 113.497 171.108,111.856 174.867,111.079 185.589 C 111.002 186.653,115.511 189.368,117.500 189.456 C 118.050 189.480,119.429 190.573,120.564 191.885 C 122.411 194.018,122.885 194.132,125.064 192.971 C 127.310 191.774,127.390 191.805,126.092 193.379 C 124.387 195.446,124.662 195.720,133.130 200.385 L 139.759 204.037 148.630 193.773 C 156.909 184.192,180.803 159.995,181.975 160.004 C 182.264 160.007,184.286 163.494,186.468 167.754 C 191.232 177.053,206.984 206.318,207.508 206.842 C 209.145 208.479,224.393 204.764,226.325 202.258 C 227.494 200.741,230.711 197.480,233.475 195.011 C 241.631 187.725,252.000 176.631,252.000 175.191 C 252.000 174.457,249.300 169.986,246.000 165.257 C 239.013 155.242,239.183 155.850,242.894 154.207 C 248.132 151.889,249.159 143.867,244.548 141.287 C 241.605 139.640,245.114 131.348,263.988 95.349 C 270.145 83.606,270.484 83.178,274.088 82.602 C 284.501 80.937,285.826 65.619,275.832 62.447 C 273.991 61.862,274.801 60.733,282.876 52.624 C 292.733 42.726,292.945 42.285,290.096 37.618 C 289.050 35.903,287.631 32.598,286.945 30.273 C 285.810 26.428,285.114 25.774,279.226 23.018 C 275.666 21.353,269.771 18.022,266.127 15.617 C 260.917 12.179,243.814 3.000,242.619 3.000 C 242.484 3.000,241.225 4.237,239.821 5.750 M243.666 15.903 C 238.351 22.116,217.066 48.171,211.059 55.819 C 203.969 64.843,202.098 65.956,201.752 61.355 C 201.671 60.285,204.981 55.159,209.111 49.956 C 213.240 44.755,220.838 35.100,225.997 28.500 C 231.156 21.900,236.934 14.543,238.837 12.150 L 242.297 7.801 243.665 11.054 C 244.821 13.803,244.821 14.554,243.666 15.903 M264.412 18.333 C 267.649 20.440,273.043 23.522,276.398 25.181 C 282.013 27.957,282.673 28.638,284.663 33.706 L 286.826 39.215 283.734 38.597 C 279.660 37.782,272.465 33.095,267.547 28.053 C 262.859 23.246,262.484 23.192,258.634 26.750 L 255.659 29.500 257.830 26.346 C 260.710 22.160,260.585 21.354,256.750 19.371 C 251.291 16.548,248.131 13.813,247.182 11.092 L 246.277 8.496 252.402 11.498 C 255.771 13.149,261.176 16.225,264.412 18.333 M124.604 20.675 C 127.297 23.797,129.962 26.834,130.526 27.425 C 144.366 41.917,168.167 72.889,167.390 75.396 C 165.981 79.941,160.075 90.619,157.796 92.741 L 155.389 94.983 151.600 91.102 C 148.246 87.668,147.946 86.969,148.990 85.018 C 152.396 78.654,145.418 73.232,137.917 76.414 C 136.743 76.912,135.277 75.451,132.243 70.760 C 127.572 63.537,113.383 45.443,110.158 42.595 C 107.474 40.226,107.463 38.972,110.084 33.835 L 112.169 29.749 116.563 34.062 C 122.314 39.706,122.909 38.723,118.547 30.787 C 114.219 22.912,113.981 21.102,117.587 23.465 C 120.987 25.693,121.883 24.603,119.731 20.854 C 115.449 13.393,118.233 13.291,124.604 20.675 M141.223 31.795 C 148.770 40.983,156.485 50.300,158.366 52.500 C 169.870 65.953,170.856 67.401,169.825 69.328 C 169.269 70.365,168.477 70.829,168.065 70.357 C 167.653 69.886,163.343 64.325,158.489 58.000 C 151.182 48.479,131.047 23.843,129.053 21.984 C 128.749 21.700,127.178 20.013,125.563 18.234 L 122.626 15.000 125.063 15.045 C 126.979 15.080,130.435 18.662,141.223 31.795 M250.455 31.063 C 242.395 42.501,243.515 44.607,253.000 35.850 C 262.687 26.906,262.382 26.981,267.809 32.220 C 273.170 37.395,280.689 42.000,283.779 42.000 C 288.095 42.000,286.259 44.197,259.932 70.531 L 233.000 97.471 233.000 93.344 C 233.000 89.675,233.305 89.141,235.750 88.530 C 242.084 86.950,243.879 81.788,239.586 77.495 C 232.858 70.767,222.387 76.837,227.434 84.540 C 229.249 87.309,228.115 89.880,223.068 94.441 C 219.954 97.256,216.490 93.418,209.641 79.563 L 204.235 68.626 210.868 60.495 C 214.515 56.023,224.140 44.418,232.255 34.706 L 247.009 17.048 251.460 20.185 L 255.911 23.322 250.455 31.063 M189.749 21.510 C 189.584 23.837,188.905 25.209,187.735 25.582 C 186.765 25.891,186.200 26.514,186.480 26.967 C 187.298 28.291,184.353 28.953,183.122 27.722 C 180.097 24.697,183.220 18.000,187.654 18.000 C 189.716 18.000,189.969 18.424,189.749 21.510 M190.976 38.250 C 196.297 59.727,209.790 89.867,216.999 96.380 C 225.872 104.396,243.145 99.949,260.908 85.077 C 266.684 80.241,267.912 80.895,264.332 86.900 C 262.490 89.988,261.476 90.876,260.690 90.090 C 259.121 88.521,257.690 88.749,258.348 90.463 C 258.671 91.307,257.891 92.727,256.502 93.819 C 253.649 96.064,252.895 98.391,255.000 98.455 C 256.685 98.506,257.742 103.000,256.070 103.000 C 255.481 103.000,255.000 102.325,255.000 101.500 C 255.000 99.273,253.958 99.649,250.298 103.196 C 247.009 106.384,245.608 109.400,248.550 106.958 C 250.410 105.415,253.750 107.977,252.505 109.991 C 251.979 110.843,251.470 110.870,250.687 110.087 C 249.058 108.458,247.570 108.777,248.964 110.456 C 250.449 112.246,249.473 114.119,247.457 113.345 C 246.393 112.937,246.157 113.246,246.619 114.448 C 247.068 115.619,246.622 116.286,245.130 116.676 C 242.445 117.378,242.399 119.144,245.023 120.782 C 246.669 121.810,246.846 122.419,245.973 124.051 C 245.383 125.154,244.465 125.787,243.934 125.459 C 243.402 125.131,243.226 124.443,243.543 123.931 C 243.859 123.419,243.678 123.000,243.141 123.000 C 242.603 123.000,241.339 122.691,240.332 122.313 C 238.776 121.729,238.690 121.859,239.762 123.180 C 241.801 125.691,238.611 127.863,236.153 125.638 C 233.899 123.599,232.601 123.571,230.979 125.525 C 229.849 126.887,229.514 126.870,227.857 125.370 C 226.118 123.797,225.882 123.797,224.145 125.369 C 223.028 126.379,221.588 126.779,220.529 126.373 C 219.110 125.828,218.893 126.087,219.407 127.708 C 219.791 128.917,219.474 130.192,218.612 130.907 C 216.838 132.379,215.725 130.897,216.684 128.340 C 217.512 126.133,214.561 128.075,212.134 131.334 C 211.153 132.652,210.463 132.863,209.684 132.084 C 208.150 130.550,205.946 130.739,203.913 132.578 C 202.334 134.008,201.945 134.010,199.798 132.603 C 197.579 131.149,197.257 131.206,194.801 133.483 C 192.533 135.587,192.011 135.718,190.955 134.446 C 190.094 133.409,189.369 133.279,188.494 134.005 C 187.812 134.571,186.409 134.736,185.377 134.370 C 183.849 133.829,183.730 133.954,184.736 135.039 C 185.724 136.104,185.651 136.728,184.378 138.135 C 182.869 139.803,182.652 139.740,180.311 136.958 C 178.120 134.354,177.668 134.189,176.348 135.509 C 174.574 137.283,173.366 137.401,172.434 135.893 C 172.058 135.285,171.469 135.172,171.125 135.643 C 169.035 138.509,167.051 139.193,165.456 137.599 C 163.402 135.545,162.185 135.562,162.361 137.642 C 162.438 138.546,161.937 139.483,161.249 139.726 C 160.451 140.008,160.218 139.594,160.606 138.584 C 160.941 137.713,160.716 137.000,160.107 137.000 C 159.498 137.000,159.000 137.402,159.000 137.893 C 159.000 139.821,155.788 139.880,153.758 137.989 C 151.489 135.875,148.743 135.143,150.800 137.200 C 152.699 139.099,152.216 140.000,149.300 140.000 C 147.200 140.000,146.867 139.733,147.800 138.800 C 149.519 137.081,149.286 135.518,147.528 136.977 C 146.351 137.954,145.735 137.878,144.456 136.599 C 142.475 134.618,141.612 134.548,142.334 136.427 C 142.635 137.212,142.250 138.378,141.478 139.019 C 139.908 140.321,138.469 137.597,126.403 110.500 C 122.729 102.250,118.476 92.734,116.950 89.354 L 114.177 83.209 120.339 86.732 C 148.941 103.089,154.855 103.714,162.849 91.222 C 165.572 86.967,167.024 83.959,171.552 73.199 C 172.768 70.308,173.193 70.033,174.970 70.984 C 177.394 72.281,177.518 73.339,175.482 75.375 C 174.647 76.210,174.026 77.254,174.101 77.696 C 174.625 80.789,173.943 82.197,172.500 81.000 C 170.747 79.545,170.453 81.053,172.158 82.758 C 173.034 83.634,173.023 84.268,172.109 85.369 C 171.357 86.275,171.271 87.049,171.879 87.425 C 172.417 87.757,173.146 87.116,173.500 86.000 C 173.860 84.864,174.627 84.270,175.242 84.650 C 175.947 85.085,176.111 84.733,175.701 83.664 C 174.742 81.164,175.905 79.029,177.833 79.750 C 179.267 80.287,179.314 80.145,178.167 78.735 C 176.737 76.976,177.503 72.575,179.070 73.544 C 179.580 73.859,179.926 73.303,179.840 72.308 C 179.513 68.545,180.055 67.000,181.700 67.000 C 182.941 67.000,183.102 66.702,182.295 65.895 C 181.488 65.088,181.573 63.873,182.608 61.395 C 183.389 59.528,183.615 58.000,183.111 58.000 C 182.608 58.000,181.725 59.350,181.150 61.000 C 180.514 62.824,179.398 64.006,178.302 64.015 C 176.894 64.027,176.800 64.221,177.872 64.900 C 178.869 65.531,179.002 66.493,178.360 68.419 C 177.568 70.797,177.285 70.929,175.605 69.700 C 173.558 68.203,174.517 64.575,180.401 51.567 C 181.661 48.780,183.772 43.688,185.091 40.250 C 187.902 32.927,189.521 32.376,190.976 38.250 M276.450 67.112 C 277.037 67.661,276.901 68.000,276.093 68.000 C 275.374 68.000,275.025 68.623,275.318 69.385 C 275.956 71.049,271.076 75.589,269.114 75.156 C 268.215 74.957,267.941 75.403,268.333 76.425 C 269.197 78.678,267.272 78.377,266.035 76.066 C 262.661 69.761,271.319 62.318,276.450 67.112 M105.411 70.371 C 105.122 71.125,105.694 72.551,106.683 73.540 C 108.413 75.270,108.377 75.312,105.740 74.650 C 104.096 74.237,103.000 74.369,103.000 74.981 C 103.000 75.541,102.325 76.000,101.500 76.000 C 100.675 76.000,100.000 76.702,100.000 77.559 C 100.000 78.416,99.550 78.840,99.000 78.500 C 97.430 77.530,97.830 72.846,99.655 70.829 C 101.624 68.653,106.210 68.288,105.411 70.371 M259.259 81.803 C 243.282 95.843,237.431 97.404,250.492 84.142 C 261.350 73.118,261.494 73.015,262.251 75.741 C 262.915 78.129,262.512 78.944,259.259 81.803 M107.000 79.190 C 107.000 80.505,104.727 79.682,104.229 78.187 C 103.985 77.456,104.443 77.233,105.416 77.606 C 106.287 77.941,107.000 78.653,107.000 79.190 M235.434 78.152 C 238.263 79.441,239.730 82.670,238.186 84.214 C 237.008 85.392,234.993 84.424,235.015 82.691 C 235.025 81.964,235.393 82.073,235.961 82.971 C 236.473 83.780,237.226 84.107,237.636 83.697 C 238.046 83.288,237.633 82.204,236.719 81.290 C 235.170 79.741,234.923 79.783,233.082 81.906 C 230.964 84.347,229.000 83.979,229.000 81.141 C 229.000 77.513,231.492 76.356,235.434 78.152 M145.605 79.170 C 146.091 79.957,145.783 80.131,144.664 79.701 C 143.577 79.284,143.000 79.572,143.000 80.531 C 143.000 81.339,142.298 82.000,141.441 82.000 C 140.584 82.000,140.160 82.450,140.500 83.000 C 140.840 83.550,140.641 84.000,140.059 84.000 C 138.566 84.000,138.735 79.274,140.250 78.662 C 142.502 77.754,144.868 77.978,145.605 79.170 M146.154 84.246 C 145.009 85.391,142.708 84.282,143.516 82.975 C 143.817 82.487,144.755 82.352,145.599 82.676 C 146.602 83.061,146.794 83.606,146.154 84.246 M182.247 89.250 C 173.926 97.848,174.337 112.690,183.118 120.663 C 192.315 129.016,204.556 109.851,198.103 97.202 C 192.538 86.293,187.536 83.785,182.247 89.250 M190.721 91.250 C 196.382 97.406,198.890 104.735,194.901 103.469 C 193.115 102.902,192.902 103.115,193.469 104.901 C 193.861 106.138,193.696 107.000,193.067 107.000 C 192.480 107.000,192.000 107.702,192.000 108.559 C 192.000 109.416,192.399 109.871,192.887 109.570 C 194.546 108.545,196.174 111.610,194.645 112.880 C 193.592 113.754,192.982 113.683,192.067 112.580 C 191.052 111.358,190.363 111.671,187.591 114.610 C 183.920 118.501,183.245 118.224,180.521 111.705 C 175.952 100.770,184.222 84.184,190.721 91.250 M151.457 96.848 C 149.644 97.216,148.041 95.460,148.015 93.076 C 148.005 92.106,148.827 92.426,150.588 94.076 C 152.797 96.146,152.924 96.551,151.457 96.848 M230.000 95.000 C 230.000 97.533,229.611 98.000,227.500 98.000 C 224.435 98.000,224.372 97.297,227.174 94.314 C 229.932 91.380,230.000 91.396,230.000 95.000 M260.314 94.750 C 259.282 97.651,258.906 98.060,257.866 97.417 C 257.267 97.047,257.555 96.044,258.590 94.901 C 260.724 92.543,261.112 92.509,260.314 94.750 M184.145 97.517 C 182.850 98.883,182.318 100.000,182.962 100.000 C 184.365 100.000,183.304 104.122,181.615 105.235 C 180.919 105.694,181.157 105.975,182.250 105.985 C 183.213 105.993,184.000 106.675,184.000 107.500 C 184.000 108.325,184.477 109.000,185.059 109.000 C 185.641 109.000,185.828 108.530,185.473 107.956 C 185.118 107.382,185.372 106.257,186.036 105.456 C 186.887 104.431,186.913 104.000,186.122 104.000 C 185.505 104.000,185.000 103.100,185.000 102.000 C 185.000 100.900,185.477 100.000,186.059 100.000 C 186.641 100.000,186.828 99.530,186.473 98.956 C 186.118 98.382,186.372 97.257,187.036 96.456 C 189.085 93.988,186.643 94.884,184.145 97.517 M130.000 103.031 C 130.000 103.599,130.675 104.322,131.500 104.638 C 132.325 104.955,133.007 106.178,133.015 107.357 C 133.027 108.941,133.255 109.146,133.890 108.143 C 135.156 106.146,139.068 107.617,138.302 109.801 C 137.816 111.186,137.955 111.269,139.053 110.250 C 140.858 108.575,142.532 108.675,144.429 110.571 C 145.293 111.436,146.000 111.661,146.000 111.071 C 146.000 110.482,147.336 110.000,148.969 110.000 C 151.339 110.000,151.826 110.353,151.387 111.750 C 150.897 113.310,151.003 113.297,152.362 111.635 C 154.862 108.580,159.184 106.687,160.157 108.220 C 160.717 109.102,160.974 108.819,160.985 107.309 C 160.993 106.104,161.450 104.840,162.000 104.500 C 162.550 104.160,163.000 103.389,163.000 102.786 C 163.000 102.183,162.184 102.429,161.186 103.331 C 159.737 104.643,159.105 104.724,158.039 103.736 C 156.958 102.734,156.821 102.828,157.316 104.235 C 157.719 105.383,157.222 106.346,155.842 107.085 C 154.349 107.883,153.951 107.888,154.438 107.100 C 154.812 106.495,154.690 106.000,154.166 106.000 C 153.642 106.000,152.955 106.675,152.638 107.500 C 152.322 108.325,150.869 109.000,149.409 109.000 C 147.163 109.000,146.947 108.769,148.000 107.500 C 148.897 106.419,148.922 106.000,148.091 106.000 C 147.456 106.000,146.697 106.625,146.404 107.389 C 146.089 108.210,145.055 108.566,143.879 108.258 C 142.709 107.952,142.104 107.173,142.412 106.369 C 143.031 104.756,141.840 104.560,140.367 106.033 C 138.931 107.469,135.757 106.074,136.436 104.306 C 136.837 103.261,136.467 103.034,135.078 103.475 C 134.028 103.809,132.879 103.613,132.525 103.041 C 131.696 101.699,130.000 101.693,130.000 103.031 M254.417 104.643 C 254.763 105.547,254.822 106.511,254.548 106.786 C 253.752 107.582,250.964 104.868,251.570 103.887 C 252.428 102.498,253.726 102.843,254.417 104.643 M192.000 114.941 C 192.000 115.459,191.543 116.165,190.984 116.510 C 190.425 116.856,190.266 117.670,190.630 118.319 C 191.138 119.224,190.994 119.223,190.014 118.317 C 189.310 117.667,189.005 116.429,189.336 115.567 C 189.986 113.874,192.000 113.400,192.000 114.941 M248.631 118.520 C 248.292 119.404,247.539 119.833,246.959 119.474 C 246.234 119.026,246.276 118.372,247.094 117.387 C 248.547 115.636,249.475 116.320,248.631 118.520 M188.771 119.813 C 189.015 120.544,188.557 120.767,187.584 120.394 C 186.713 120.059,186.000 119.347,186.000 118.810 C 186.000 117.495,188.273 118.318,188.771 119.813 M227.765 127.165 C 228.652 128.052,228.521 128.629,227.218 129.583 C 224.937 131.250,222.393 129.437,224.110 127.367 C 225.497 125.696,226.254 125.654,227.765 127.165 M235.890 127.367 C 237.606 129.435,234.606 131.748,232.488 129.990 C 231.000 128.755,232.044 126.000,234.000 126.000 C 234.415 126.000,235.266 126.615,235.890 127.367 M243.393 126.826 C 244.851 129.185,242.782 132.113,240.876 130.388 C 239.454 129.101,239.275 128.374,240.126 127.348 C 241.398 125.815,242.645 125.616,243.393 126.826 M224.000 132.500 C 224.000 134.208,220.927 135.327,219.675 134.075 C 219.021 133.421,219.103 132.581,219.915 131.602 C 221.298 129.936,224.000 130.530,224.000 132.500 M231.890 131.367 C 233.606 133.435,230.606 135.748,228.488 133.990 C 227.000 132.755,228.044 130.000,230.000 130.000 C 230.415 130.000,231.266 130.615,231.890 131.367 M240.307 131.787 C 241.307 132.892,241.697 134.442,241.330 135.847 L 240.735 138.121 237.886 135.391 C 235.707 133.303,235.297 132.348,236.141 131.330 C 237.604 129.567,238.374 129.651,240.307 131.787 M215.000 134.500 C 214.123 135.557,213.351 135.751,212.685 135.085 C 212.018 134.418,212.123 133.557,213.000 132.500 C 213.877 131.443,214.649 131.249,215.315 131.915 C 215.982 132.582,215.877 133.443,215.000 134.500 M208.813 133.938 C 209.063 134.688,208.688 135.063,207.938 134.813 C 207.216 134.572,206.428 133.784,206.188 133.063 C 205.938 132.313,206.313 131.938,207.063 132.188 C 207.784 132.428,208.572 133.216,208.813 133.938 M199.365 137.035 C 198.033 138.367,195.504 135.611,196.532 133.948 C 197.032 133.139,197.698 133.270,198.825 134.397 C 199.935 135.506,200.097 136.303,199.365 137.035 M205.890 137.633 C 204.622 139.161,199.545 139.546,200.473 138.044 C 200.798 137.518,201.803 137.371,202.706 137.717 C 203.911 138.180,204.186 137.928,203.743 136.771 C 202.930 134.655,203.997 133.753,205.670 135.141 C 206.693 135.990,206.747 136.600,205.890 137.633 M221.500 137.000 C 221.963 137.000,223.084 136.329,223.991 135.508 C 225.463 134.176,225.878 134.238,227.853 136.078 L 230.066 138.140 231.975 135.820 L 233.883 133.500 236.669 136.250 L 239.455 139.000 226.053 139.000 L 212.651 139.000 214.999 136.501 C 217.105 134.259,217.515 134.156,219.002 135.501 C 219.912 136.326,221.037 137.000,221.500 137.000 M190.426 138.333 C 190.069 139.262,188.700 140.000,187.334 140.000 C 185.954 140.000,185.152 139.563,185.500 139.000 C 185.840 138.450,186.766 138.000,187.559 138.000 C 188.352 138.000,188.947 137.662,188.882 137.250 C 188.583 135.357,189.071 134.671,190.033 135.633 C 190.601 136.201,190.778 137.416,190.426 138.333 M212.000 137.559 C 212.000 138.481,211.010 138.975,209.250 138.930 C 206.813 138.867,206.728 138.762,208.500 138.000 C 209.600 137.527,210.136 137.109,209.691 137.070 C 209.246 137.032,209.165 136.543,209.510 135.984 C 210.330 134.656,212.000 135.713,212.000 137.559 M177.620 138.809 C 176.755 139.673,175.748 140.081,175.381 139.715 C 174.422 138.756,177.036 135.904,178.209 136.629 C 178.794 136.991,178.555 137.874,177.620 138.809 M172.457 139.069 C 172.141 139.581,171.178 140.000,170.319 140.000 C 169.047 140.000,168.986 139.722,169.991 138.511 C 171.282 136.955,173.459 137.448,172.457 139.069 M241.985 142.992 C 248.761 146.618,244.208 151.931,233.349 153.069 C 221.641 154.297,140.249 154.197,135.758 152.950 C 131.064 151.646,129.657 147.899,132.714 144.842 C 135.830 141.725,236.436 140.022,241.985 142.992 M133.754 155.827 C 134.648 156.395,133.213 158.622,128.754 163.588 C 125.314 167.418,120.821 172.566,118.770 175.026 L 115.039 179.500 115.033 176.500 C 115.027 174.156,116.823 171.477,123.240 164.250 C 131.906 154.492,131.793 154.582,133.754 155.827 M241.927 164.557 C 248.143 173.248,248.613 175.019,244.691 174.976 C 241.968 174.946,230.479 157.978,232.361 156.765 C 234.739 155.231,235.977 156.239,241.927 164.557 M168.690 157.873 L 178.880 158.500 163.135 174.500 C 154.475 183.300,145.596 192.784,143.403 195.577 L 139.416 200.653 133.822 197.556 L 128.228 194.458 133.112 188.979 C 137.325 184.253,139.133 181.000,137.546 181.000 C 137.296 181.000,134.067 183.261,130.370 186.024 C 123.338 191.281,120.106 191.540,123.351 186.587 C 126.647 181.557,124.406 180.279,119.886 184.609 C 117.194 187.188,114.603 187.097,115.195 184.445 C 115.363 183.692,120.585 177.209,126.799 170.038 L 138.098 157.000 148.299 157.123 C 153.910 157.190,163.086 157.527,168.690 157.873 M233.794 166.500 L 240.089 175.949 236.794 178.945 C 232.607 182.754,233.304 183.017,227.621 175.475 C 220.173 165.591,218.180 166.263,223.500 176.864 C 227.862 185.556,227.851 186.095,223.260 188.523 C 218.259 191.167,212.221 196.671,210.347 200.295 L 208.824 203.241 203.080 192.870 C 190.031 169.312,185.947 160.768,187.081 159.402 C 188.257 157.985,194.345 157.510,215.000 157.224 L 227.500 157.052 233.794 166.500 M203.243 168.157 C 200.707 170.693,204.054 177.321,206.963 175.523 C 207.562 175.153,210.216 176.404,212.861 178.304 C 217.156 181.390,217.780 181.582,218.707 180.098 C 219.549 178.749,219.024 177.919,215.908 175.679 C 213.798 174.163,211.490 171.702,210.778 170.211 C 209.348 167.212,205.293 166.107,203.243 168.157 M206.129 171.271 C 204.464 172.936,203.521 171.282,205.071 169.415 C 206.008 168.285,206.550 168.150,206.826 168.978 C 207.045 169.636,206.732 170.668,206.129 171.271 M244.479 180.438 C 243.037 182.329,239.867 185.507,237.434 187.501 C 235.001 189.494,230.393 193.825,227.194 197.125 C 221.471 203.029,221.298 203.120,216.457 202.812 L 211.537 202.500 215.391 198.243 C 217.510 195.902,221.889 192.577,225.122 190.854 C 231.851 187.268,231.646 187.718,228.937 182.485 L 226.875 178.500 229.510 181.750 C 232.749 185.745,233.302 185.762,237.304 181.982 C 239.062 180.322,241.850 178.562,243.500 178.072 C 245.150 177.582,246.635 177.140,246.801 177.090 C 246.966 177.041,245.922 178.547,244.479 180.438 " stroke="none" fill="#000000" fill-rule="evenodd"></path></g></svg>