
<svg id="svg" version="1.1" xmlns="http://www.w3.org/2000/svg" xmlns:xlink="http://www.w3.org/1999/xlink" width="400" height="400" viewBox="0, 0, 400,400"><g id="svgg"><path id="path0" d="M197.000 3.372 C 186.249 7.457,180.288 10.708,171.553 17.251 C 166.326 21.166,162.880 22.893,157.635 24.225 C 143.233 27.882,126.533 37.681,115.538 48.925 L 110.575 54.000 82.353 54.000 C 65.068 54.000,53.060 54.407,51.369 55.050 C 49.851 55.627,37.689 67.214,24.342 80.800 L 0.076 105.500 0.038 250.161 L -0.000 394.822 3.077 397.411 L 6.153 400.000 178.304 400.000 L 350.455 400.000 375.228 375.228 L 400.000 350.455 400.000 205.950 C 400.000 73.972,399.859 61.243,398.369 59.117 C 394.905 54.171,393.199 54.000,347.220 54.000 L 304.375 54.000 298.101 44.418 C 274.351 8.144,230.884 -9.503,197.000 3.372 M237.284 25.675 C 247.854 28.812,257.389 35.022,268.750 46.171 C 276.984 54.251,277.274 54.000,259.716 54.000 L 244.432 54.000 238.966 48.434 C 231.498 40.828,221.856 33.811,213.122 29.626 L 205.819 26.126 209.659 25.129 C 211.772 24.581,214.625 23.916,216.000 23.651 C 219.980 22.883,231.598 23.988,237.284 25.675 M194.806 48.434 C 209.987 53.597,209.638 53.915,188.750 53.960 C 178.438 53.982,170.000 53.727,170.000 53.394 C 170.000 53.061,171.427 50.986,173.171 48.784 L 176.342 44.780 182.127 45.435 C 185.309 45.795,191.015 47.144,194.806 48.434 M92.019 85.250 C 90.437 88.688,88.458 93.188,87.622 95.250 L 86.102 99.000 76.551 99.000 L 67.000 99.000 67.000 89.000 L 67.000 79.000 80.947 79.000 L 94.895 79.000 92.019 85.250 M236.187 85.250 C 240.236 92.273,243.000 97.629,243.000 98.450 C 243.000 98.753,213.541 99.000,177.536 99.000 L 112.071 99.000 113.990 94.523 C 115.046 92.060,117.499 87.560,119.442 84.523 L 122.975 79.000 177.780 79.000 L 232.584 79.000 236.187 85.250 M349.488 89.012 L 339.513 99.025 304.216 98.762 L 268.920 98.500 265.386 90.000 C 263.443 85.325,261.613 80.938,261.319 80.250 C 260.897 79.260,271.036 79.000,310.124 79.000 L 359.462 79.000 349.488 89.012 M367.004 349.484 L 357.000 359.488 357.000 237.512 L 357.000 115.536 366.750 105.749 L 376.500 95.962 376.754 217.721 L 377.008 339.480 367.004 349.484 M79.614 125.250 C 77.822 131.757,76.703 157.607,78.090 160.440 C 81.731 167.877,91.668 169.794,97.313 164.149 C 100.230 161.232,100.371 160.676,101.158 149.002 C 101.607 142.336,102.427 134.097,102.980 130.691 C 103.533 127.286,103.988 124.162,103.992 123.750 C 103.997 123.338,137.039 123.000,177.421 123.000 L 250.841 123.000 251.417 125.750 C 252.834 132.521,253.962 143.094,253.980 149.782 C 254.020 164.321,261.379 170.818,272.559 166.183 C 279.405 163.346,281.133 145.318,276.483 125.250 L 275.962 123.000 303.981 123.000 L 332.000 123.000 332.000 161.135 L 332.000 199.270 329.927 196.635 C 326.792 192.649,320.732 192.947,314.363 197.400 C 311.688 199.270,299.600 206.988,287.500 214.550 C 275.400 222.112,259.425 232.102,252.000 236.750 C 244.575 241.398,237.293 246.335,235.818 247.722 L 233.136 250.244 232.418 246.372 C 232.023 244.242,227.717 232.375,222.848 220.000 C 217.980 207.625,211.899 192.100,209.337 185.500 C 206.774 178.900,203.236 170.575,201.475 167.000 C 199.714 163.425,195.658 153.975,192.460 146.000 C 189.263 138.025,185.982 130.713,185.169 129.750 C 182.451 126.533,171.000 128.360,171.000 132.011 C 171.000 135.029,122.123 237.927,120.668 237.974 C 120.210 237.988,109.185 231.779,96.168 224.175 C 83.150 216.571,69.350 208.653,65.500 206.580 C 61.650 204.507,57.600 202.015,56.500 201.043 C 44.483 190.423,30.585 187.627,25.016 194.707 L 23.000 197.270 23.000 160.135 L 23.000 123.000 51.617 123.000 L 80.233 123.000 79.614 125.250 M227.447 255.827 C 231.804 260.351,234.587 259.373,273.545 239.620 C 293.742 229.379,310.350 221.000,310.451 221.000 C 310.553 221.000,309.171 228.988,307.381 238.750 C 300.280 277.490,289.114 339.772,288.439 344.410 L 287.725 349.321 247.199 348.660 C 224.909 348.297,176.616 348.000,139.881 348.000 L 73.091 348.000 72.527 344.750 C 72.218 342.962,70.842 335.650,69.471 328.500 C 65.330 306.902,52.027 228.640,52.429 228.238 C 52.928 227.738,69.247 236.404,98.431 252.665 C 135.739 273.453,133.104 275.430,160.620 206.000 C 162.037 202.425,166.827 190.839,171.264 180.254 L 179.332 161.009 202.751 207.754 C 215.631 233.464,226.745 255.097,227.447 255.827 M332.000 292.500 L 332.000 377.000 177.500 377.000 L 23.000 377.000 23.109 293.250 L 23.217 209.500 25.496 223.000 C 26.750 230.425,29.613 247.975,31.858 262.000 C 49.868 374.489,48.706 368.762,54.085 371.544 C 57.197 373.153,139.753 373.402,248.232 372.130 L 301.964 371.500 305.024 368.439 C 307.831 365.631,308.245 364.306,310.026 352.439 C 313.508 329.246,321.699 274.221,326.653 240.750 C 329.319 222.738,331.613 208.001,331.750 208.000 C 331.887 208.000,332.000 246.025,332.000 292.500 " stroke="none" fill="#000000" fill-rule="evenodd"></path></g></svg>